<?xml version="1.0" encoding="UTF-8"?>
<svg version="1.1" xmlns="http://www.w3.org/2000/svg" width="834" height="834">
<path d="M0 0 C1.09086662 -0.00445784 2.18173325 -0.00891569 3.30565643 -0.01350862 C4.50368645 -0.01332426 5.70171646 -0.01313989 6.93605042 -0.01294994 C8.84570461 -0.01846498 8.84570461 -0.01846498 10.79393768 -0.02409142 C14.3304271 -0.03410268 17.86689955 -0.03782682 21.40340114 -0.04048073 C25.21682756 -0.04438646 29.03024059 -0.05396472 32.84365845 -0.0626936 C42.05532652 -0.08245194 51.26699569 -0.09252409 60.47867966 -0.10142139 C64.81855592 -0.10580592 69.15843097 -0.11117236 73.49830627 -0.11641026 C87.92895759 -0.13342303 102.35960814 -0.14791614 116.79026794 -0.155159 C120.53474427 -0.15706884 124.27922059 -0.15898918 128.0236969 -0.16094494 C128.95434959 -0.16142868 129.88500228 -0.16191242 130.84385657 -0.16241082 C145.91223998 -0.17070711 160.9805439 -0.19603704 176.04889262 -0.22852562 C191.52572863 -0.26162229 207.00252429 -0.27961017 222.47939587 -0.28280324 C231.16640336 -0.28496608 239.85329499 -0.29368145 248.54026794 -0.31926441 C255.94030797 -0.34100719 263.34020399 -0.34900434 270.74027234 -0.33929763 C274.5129458 -0.33476305 278.28532235 -0.33658953 282.05795479 -0.35605907 C286.15693144 -0.37702912 290.25525414 -0.36667292 294.35426331 -0.35352612 C295.53444755 -0.36449536 296.71463179 -0.37546461 297.93057919 -0.38676625 C309.10756771 -0.30049651 318.6355854 2.04113551 326.80934143 9.97797108 C332.36782929 16.47857552 333.76755567 23.1469858 333.96949768 31.50922108 C333.99041473 32.24930912 334.01133179 32.98939716 334.03288269 33.75191212 C334.09978468 36.21256871 334.1585915 38.67331605 334.21559143 41.13422108 C334.23610565 41.98668415 334.25661987 42.83914722 334.27775574 43.71744251 C336.24045327 127.00236623 331.02263553 208.21352732 270.65309143 272.13422108 C269.56483336 273.40083974 268.48140958 274.67162954 267.40309143 275.94672108 C258.97957904 285.57916349 249.75559002 294.28824977 239.65309143 302.13422108 C238.39875442 303.14019462 237.14487948 304.14674448 235.89137268 305.15375233 C225.37072558 313.50631852 214.31712544 320.49500018 202.65309143 327.13422108 C202.01226624 327.50885487 201.37144104 327.88348866 200.7111969 328.26947498 C157.16191822 353.71600991 107.23597685 358.6198112 57.84059143 358.32172108 C55.35165969 358.31213629 52.86272738 358.30269808 50.37379456 358.29340076 C44.26276531 358.26553734 38.15205069 358.21963966 32.04121399 358.16418934 C28.85667877 358.13602183 25.6721498 358.11328737 22.48756409 358.09174061 C18.01128155 358.05833428 13.53594021 358.00231697 9.06022644 357.92368031 C7.47826252 357.89774779 5.89618928 357.87769342 4.31407166 357.86404896 C-5.46228977 357.76834892 -12.63038323 356.59072477 -21.03440857 351.50922108 C-29.77465773 342.53274897 -31.64628288 332.89604197 -31.61433411 320.83180714 C-31.62113078 318.95528329 -31.62113078 318.95528329 -31.62806475 317.04084986 C-31.64028208 313.57533291 -31.64003578 310.10991259 -31.637676 306.64437902 C-31.6372675 302.90393775 -31.6483102 299.16352733 -31.65779114 295.42310047 C-31.67439586 288.09691121 -31.67990047 280.77075414 -31.68101589 273.44454763 C-31.68196675 267.48749552 -31.68607894 261.53045402 -31.69241714 255.57340527 C-31.71002921 238.67594985 -31.71925623 221.77851982 -31.7177562 204.88105515 C-31.71767628 203.97032989 -31.71759637 203.05960462 -31.71751404 202.12128162 C-31.71743228 201.20944131 -31.71735052 200.297601 -31.71726628 199.35812917 C-31.7164537 184.58665177 -31.73558427 169.81527642 -31.76379077 155.04382852 C-31.79253899 139.86864166 -31.80632995 124.69350453 -31.80460322 109.51828974 C-31.80393992 101.00181881 -31.80940572 92.48545482 -31.83095932 83.96900845 C-31.84919678 76.71646856 -31.85349757 69.46408407 -31.83994047 62.21153114 C-31.83342329 58.51390635 -31.83324786 54.81657947 -31.85064697 51.11898327 C-31.86934939 47.10294934 -31.85679049 43.08760111 -31.84138489 39.07155323 C-31.85167201 37.91316608 -31.86195914 36.75477893 -31.872558 35.56128913 C-31.79020431 25.82306776 -29.52812384 16.65523549 -23.32347107 8.92328358 C-16.92162036 3.12872305 -8.53672155 0.01619494 0 0 Z " fill="#E47C23" transform="translate(31.346908569335938,-0.13422107696533203)"/>
<path d="M0 0 C4.16422686 0.00685083 8.32841741 -0.00372001 12.4926368 -0.01193976 C20.62647283 -0.02521312 28.76022537 -0.02242881 36.89406454 -0.01370184 C43.50589883 -0.00690361 50.11770987 -0.00601777 56.72954667 -0.00927329 C57.67352965 -0.00973299 58.61751264 -0.01019269 59.59010117 -0.01066632 C61.50819179 -0.01162556 63.42628239 -0.0125982 65.344373 -0.01358409 C83.2873914 -0.02211838 101.23036365 -0.01233303 119.17337448 0.00381701 C134.55595659 0.0172337 149.93847081 0.01487717 165.32105172 0.00106072 C183.21438333 -0.01500347 201.10767468 -0.02131063 219.0010125 -0.01210248 C220.90957784 -0.01114689 222.81814318 -0.01020378 224.72670853 -0.00927329 C225.66561233 -0.00881046 226.60451613 -0.00834764 227.57187156 -0.00787079 C234.17628281 -0.00528456 240.78066841 -0.00964364 247.38507569 -0.01671195 C255.43226692 -0.0251358 263.47937039 -0.02282755 271.5265516 -0.00686972 C275.62912254 0.00099872 279.73154729 0.0041288 283.83411705 -0.00581717 C287.59350667 -0.01479331 291.35261529 -0.00978364 295.11197961 0.00611548 C297.10699002 0.01102382 299.10202012 0.00129341 301.09700972 -0.00905621 C311.32628734 0.05759068 321.24551281 1.51542221 329.25977242 8.39217401 C338.86672228 19.00120933 338.70348269 32.85924376 338.64795601 46.35311151 C338.65202967 48.0299745 338.65737597 49.70683481 338.66388619 51.38369012 C338.6774713 55.90437018 338.67229783 60.42484304 338.66274893 64.94552636 C338.65510639 69.696465 338.66221062 74.44738695 338.66690743 79.19832635 C338.67235167 87.17378163 338.66520842 95.14915332 338.6508857 103.12459588 C338.63456177 112.32006236 338.63985122 121.51532922 338.65636492 130.71079087 C338.67001783 138.63304045 338.6718809 146.55523025 338.66404891 154.4774878 C338.65939326 159.19719102 338.65868911 163.91680068 338.66865838 168.63649774 C338.67738139 173.07554401 338.67120965 177.51433515 338.65397561 181.95335412 C338.65003906 183.57377728 338.65109567 185.19422225 338.6577636 186.81463647 C338.70597326 199.72990426 338.15033429 212.20463605 329.25977242 222.39217401 C322.42764118 228.9293931 313.63398084 230.82731491 304.44570076 230.89922357 C303.61375455 230.9168573 302.78180833 230.93449104 301.92465162 230.95265913 C299.18361719 231.00655025 296.44279459 231.03945627 293.70142281 231.07137322 C291.73938629 231.10399728 289.77736318 231.13743623 287.81535351 231.17163682 C266.68381312 231.51470187 245.54896425 231.53962681 224.41517437 231.52649951 C218.86614533 231.52389361 213.31711759 231.5263355 207.76808846 231.52788568 C198.46624109 231.529684 189.16440176 231.52736342 179.86255562 231.5225451 C169.24132639 231.51710547 158.62011637 231.5188726 147.9988876 231.5243715 C138.73455833 231.52896847 129.47023471 231.52952164 120.20590466 231.52693284 C114.73621638 231.52540583 109.26653701 231.52507392 103.79684937 231.52846932 C83.06550675 231.53933462 62.33319658 231.49613665 41.60472035 231.11975861 C39.79388427 231.08822203 37.98296827 231.06090469 36.17199707 231.03842783 C-4.58957949 230.50535333 -39.89177937 214.86225056 -68.54393852 186.0784533 C-96.43800494 157.1426601 -107.40542072 120.04055029 -107.02147758 80.58358026 C-106.80678429 72.29749269 -105.56690994 65.1886443 -102.74022758 57.39217401 C-102.17948539 55.79115838 -102.17948539 55.79115838 -101.60741508 54.15779901 C-96.78092015 41.56416322 -89.08577203 31.87395089 -79.74022758 22.39217401 C-79.08280571 21.72186151 -78.42538383 21.05154901 -77.74804008 20.36092401 C-56.096336 -0.08274508 -27.86201487 -0.06793094 0 0 Z " fill="#E47C23" transform="translate(495.7402275800705,388.6078259944916)"/>
<path d="M0 0 C0.84659536 -0.00297112 1.69319071 -0.00594224 2.56544048 -0.0090034 C5.40104364 -0.01767197 8.23660449 -0.0191971 11.07221985 -0.02069092 C13.10596812 -0.02532042 15.13971552 -0.03034526 17.17346191 -0.03573608 C22.69845413 -0.04884993 28.2234342 -0.05530314 33.74843955 -0.05974674 C37.20175893 -0.06267929 40.655075 -0.06678446 44.10839272 -0.07125092 C54.91739597 -0.08492358 65.72639165 -0.0945912 76.53540295 -0.09845281 C89.00454237 -0.10293221 101.47357209 -0.12047567 113.94267815 -0.1494534 C123.58616983 -0.171085 133.22963068 -0.18115789 142.87314636 -0.18249393 C148.63024318 -0.18354095 154.38723685 -0.18942695 160.14430809 -0.20731354 C165.5624015 -0.22381956 170.98031452 -0.22593736 176.39842415 -0.21717453 C178.38251606 -0.2164055 180.36661777 -0.22072915 182.35068512 -0.23063278 C195.62890534 -0.29300335 208.16837337 -0.34589417 218.5695343 9.14044189 C226.83439159 19.70600891 226.86655934 30.56968229 226.8441925 43.41265869 C226.84854481 45.0644758 226.85372968 46.7162909 226.85968018 48.36810303 C226.87303739 52.84206 226.87365164 57.31593229 226.87111688 61.78990531 C226.87004322 65.54117975 226.8749415 69.29243734 226.8797223 73.04370815 C226.89080989 81.91231005 226.89126153 90.78086962 226.88520813 99.6494751 C226.87919208 108.74810525 226.89142053 117.84657984 226.9127782 126.94518346 C226.93050889 134.79190249 226.93637697 142.63857257 226.93314046 150.48531085 C226.93134286 155.15562688 226.93380744 159.82583238 226.947855 164.49612999 C227.10464469 221.56920748 214.123446 267.92991615 173.5695343 310.14044189 C171.01024775 312.62294985 168.34251951 314.90053497 165.5695343 317.14044189 C164.68394836 317.87520752 163.79836243 318.60997314 162.88594055 319.36700439 C128.35419195 347.08038225 83.04503795 361.97870984 38.73579407 357.24615479 C16.90392941 354.44398473 -4.05470152 342.76934726 -17.6023407 325.34747314 C-29.62271539 308.78920532 -35.5815579 291.2014218 -35.57763672 270.69189453 C-35.58315175 269.13260613 -35.58315175 269.13260613 -35.5887782 267.54181695 C-35.59977433 264.06524677 -35.60365192 260.58870652 -35.60746765 257.11212158 C-35.61373524 254.61665249 -35.62038231 252.12118432 -35.62738037 249.62571716 C-35.64657049 242.14464895 -35.65720131 234.66358868 -35.66610816 227.1825031 C-35.67049924 223.65440558 -35.67586375 220.12630955 -35.68109703 216.5982132 C-35.69809997 204.86275926 -35.71259411 193.12730624 -35.71984577 181.39184189 C-35.72175546 178.35084787 -35.72367583 175.30985385 -35.72563171 172.26885986 C-35.72611545 171.51309702 -35.72659919 170.75733418 -35.72709759 169.97866943 C-35.73539812 157.73566453 -35.76073959 145.4927573 -35.79321239 133.24979505 C-35.82631959 120.66457027 -35.84429766 108.0793951 -35.84749001 95.49412656 C-35.84965125 88.4341813 -35.85834365 81.3743787 -35.88395119 74.31447601 C-35.9079881 67.67257779 -35.911461 61.03088967 -35.9011898 54.38894081 C-35.90069462 51.95536 -35.9070098 49.52176651 -35.92074585 47.08822441 C-35.93849002 43.7574854 -35.9313454 40.4276643 -35.91821289 37.09692383 C-35.92918214 36.14154811 -35.94015138 35.18617239 -35.95145303 34.20184588 C-35.86489812 25.0645899 -33.1987658 16.13329701 -27.40312195 8.92950439 C-19.52790434 1.78722783 -10.23492175 -0.01125526 0 0 Z " fill="#E47C23" transform="translate(424.4304656982422,-0.14044189453125)"/>
<path d="M0 0 C2.80413528 -0.00242446 5.60825594 -0.00931058 8.41238403 -0.01593018 C15.19519207 -0.02917401 21.97789975 -0.02643293 28.76071149 -0.01769225 C34.27507836 -0.01088338 39.78941735 -0.01001272 45.30378723 -0.0132637 C46.0922145 -0.0137234 46.88064177 -0.0141831 47.69296077 -0.01465673 C49.29513785 -0.015616 50.89731492 -0.01658865 52.49949199 -0.0175745 C67.47147498 -0.0260998 82.44340258 -0.01633707 97.41537648 -0.0001734 C110.2447187 0.01324814 123.07397953 0.01088104 135.90332031 -0.00292969 C150.83858849 -0.01900013 165.77380842 -0.02529804 180.70908403 -0.0160929 C182.30252106 -0.01513733 183.8959581 -0.01419422 185.48939514 -0.0132637 C186.6651231 -0.01256946 186.6651231 -0.01256946 187.86460313 -0.0118612 C193.37247005 -0.00927726 198.88030618 -0.01362896 204.38816833 -0.02070236 C211.09952202 -0.02913294 217.81077049 -0.0268037 224.52211219 -0.01086013 C227.94218504 -0.00300153 231.36208272 0.00015536 234.78215408 -0.00980759 C238.49569038 -0.0180228 242.20873604 -0.00770117 245.92224121 0.00723267 C247.52934818 -0.00280558 247.52934818 -0.00280558 249.16892195 -0.01304662 C259.62357862 0.06833083 268.85107667 2.40895461 276.86132812 9.38818359 C284.74489009 18.35303211 285.30719909 30.40020587 285.24951172 41.76318359 C285.25739716 43.69955688 285.25739716 43.69955688 285.26544189 45.67504883 C285.27899971 49.18337644 285.27386522 52.69143638 285.26430464 56.19976807 C285.25664761 59.89148621 285.26377027 63.58318319 285.26846313 67.27490234 C285.27390325 73.47155828 285.26677514 79.66810655 285.25244141 85.86474609 C285.23611821 93.00336843 285.24140796 100.14173361 285.25792062 107.28034973 C285.27158548 113.43697797 285.27343085 119.59352932 285.26560462 125.75016785 C285.26095544 129.41519376 285.26022652 133.08009927 285.27021408 136.74511719 C285.28058233 140.83462465 285.26616522 144.92369686 285.24951172 149.01318359 C285.25558441 150.20935303 285.2616571 151.40552246 285.26791382 152.63793945 C285.1849272 163.69096643 283.41759868 173.90598054 275.86132812 182.38818359 C265.69284705 191.44665504 253.29696371 191.83298872 240.33381653 191.77586365 C238.78067236 191.78004299 237.22753125 191.78552379 235.67439574 191.79218346 C231.43168352 191.80657854 227.18916655 191.80241199 222.94644392 191.79501665 C218.36072132 191.79027239 213.77504021 191.80280607 209.18933105 191.81303406 C200.21445584 191.83020403 191.2396507 191.83106563 182.26476333 191.82582115 C174.96586109 191.82177409 167.6669795 191.82322938 160.36807823 191.82856941 C158.80777638 191.82969205 158.80777638 191.82969205 157.21595329 191.83083736 C155.10251286 191.8323689 152.98907243 191.83390725 150.87563201 191.83545233 C131.06828798 191.84917139 111.26098348 191.84374433 91.45364036 191.83226711 C73.35560203 191.82234012 55.25766601 191.83526725 37.15964345 191.8592013 C18.55468315 191.88361938 -0.05022955 191.89319322 -18.65520555 191.88654858 C-29.09161593 191.88306177 -39.5279477 191.88525259 -49.96434593 191.90279961 C-58.85071155 191.91755567 -67.73694321 191.91811288 -76.6233063 191.9007287 C-81.15191967 191.89224342 -85.6802941 191.89000816 -90.20889473 191.90538025 C-94.36488173 191.91931207 -98.52042701 191.91435642 -102.67638902 191.89514101 C-104.16960429 191.89140645 -105.66285569 191.89422842 -107.15603855 191.90475266 C-122.39175928 192.00439151 -136.73631843 190.01844597 -148.27929688 179.42333984 C-158.94056416 168.50541242 -160.40207697 155.71826761 -160.38525391 141.18554688 C-160.02951582 111.3181673 -149.01521659 80.55129184 -130.13867188 57.38818359 C-129.4495874 56.53426025 -129.4495874 56.53426025 -128.74658203 55.66308594 C-125.62948613 51.82543394 -122.42139283 48.08507962 -119.13867188 44.38818359 C-118.55859375 43.73462891 -117.97851562 43.08107422 -117.38085938 42.40771484 C-101.12115002 25.20837404 -78.52762798 12.89378927 -56.07617188 6.01318359 C-55.34712646 5.78679199 -54.61808105 5.56040039 -53.86694336 5.32714844 C-36.03887511 0.20814103 -18.41855858 -0.04518087 0 0 Z " fill="#E47C23" transform="translate(549.138671875,642.61181640625)"/>
<path d="M0 0 C1.36801758 0.01522705 1.36801758 0.01522705 2.76367188 0.03076172 C44.41893808 0.96043808 82.27373473 20.01518237 111.125 49.375 C139.76540445 80.8053373 152.11105013 119.26752973 152.7421875 161.15625 C152.76062588 162.20531021 152.77906425 163.25437042 152.79806137 164.33522034 C153.37160168 197.16627235 153.27563905 230.00705305 153.25357032 262.84186935 C153.24981695 269.06174007 153.25114961 275.28159473 153.25537109 281.50146484 C153.2704391 304.63810412 153.24101436 327.77412085 153.13591194 350.91054535 C153.12497895 353.37975317 153.11505986 355.84896343 153.10533142 358.31817627 C153.0669527 367.7169584 153.00458996 377.11510572 152.90792465 386.51347351 C152.87918858 389.36367618 152.85913185 392.21371982 152.84717178 395.06404114 C152.83022917 398.96426645 152.78177821 402.86374568 152.72998047 406.76367188 C152.72914333 407.8883638 152.7283062 409.01305573 152.7274437 410.17182922 C152.53939518 420.46923489 150.18730798 429.20348756 142.89453125 436.7265625 C133.87817302 445.12590725 122.30623481 445.82807616 110.47851562 445.76318359 C108.67600594 445.77106903 108.67600594 445.77106903 106.83708191 445.77911377 C103.57869978 445.78996277 100.32069067 445.78755041 97.06231499 445.77797651 C93.62865376 445.77030299 90.19501489 445.77744662 86.76135254 445.78213501 C80.99857202 445.78757043 75.2359074 445.78045953 69.47314453 445.76611328 C62.84063569 445.74979097 56.20840366 445.75508106 49.57590151 445.7715925 C43.84895626 445.78527093 38.12209364 445.78709619 32.39513731 445.77927649 C28.98886812 445.77463466 25.58272841 445.77387754 22.1764679 445.78388596 C18.37462002 445.79155783 14.5732937 445.77981536 10.77148438 445.76318359 C9.66463791 445.76925629 8.55779144 445.77532898 7.41740417 445.78158569 C-4.75546628 445.68359941 -14.58215043 443.59148465 -23.3671875 434.8984375 C-29.51396632 428.09697218 -30.99602199 420.43221694 -31.00922108 411.59039116 C-31.01157331 410.91763315 -31.01392554 410.24487513 -31.01634905 409.55173051 C-31.02301597 407.29316824 -31.02258152 405.0346638 -31.02217102 402.77609253 C-31.02547108 401.14207024 -31.02919694 399.50804876 -31.0333125 397.87402833 C-31.04332437 393.38013578 -31.04704798 388.8862566 -31.04970181 384.39235449 C-31.05360723 379.54691851 -31.06318534 374.70149308 -31.07191467 369.85606384 C-31.09167149 358.15313838 -31.10174392 346.45021207 -31.11064246 334.7472741 C-31.1150263 329.23574243 -31.12039283 323.72421173 -31.12563133 318.21268082 C-31.14264218 299.89084256 -31.15713661 281.5690049 -31.16438007 263.24715996 C-31.16628995 258.49322382 -31.16821029 253.73928768 -31.17016602 248.98535156 C-31.17064976 247.80379042 -31.1711335 246.62222928 -31.1716319 245.40486325 C-31.17993321 226.26196433 -31.2052725 207.11912788 -31.23774669 187.97625624 C-31.27081701 168.32173789 -31.28882878 148.66725129 -31.29202431 129.01270497 C-31.29418934 117.97775913 -31.30293707 106.94290441 -31.32848549 95.90798569 C-31.350192 86.51080746 -31.35824308 77.1137425 -31.34851871 67.71654205 C-31.34397401 62.92327529 -31.34587024 58.13024223 -31.36528015 53.33700752 C-31.38291219 48.94482775 -31.38191378 44.55305214 -31.36638286 40.16086806 C-31.36400687 38.57603599 -31.36832991 36.99117592 -31.38021151 35.4063866 C-31.44737897 25.85196273 -31.51649929 15.83822691 -25.00776464 8.17719066 C-18.02657818 1.26532258 -9.50257598 -0.15622149 0 0 Z " fill="#E47C23" transform="translate(30.875,388.625)"/>
<path d="M0 0 C1.54332504 -0.00788544 1.54332504 -0.00788544 3.11782837 -0.01593018 C6.49480697 -0.02905676 9.87130821 -0.02041726 13.24829102 -0.01025391 C15.61043894 -0.0122769 17.97258626 -0.01519021 20.33473206 -0.01895142 C25.27643807 -0.02336498 30.21798097 -0.01697533 35.15966797 -0.00292969 C41.47540765 0.01415197 47.79076452 0.00432098 54.10649014 -0.01364708 C58.98198804 -0.02451899 63.85739611 -0.02102276 68.7328968 -0.0132637 C71.06077177 -0.01127063 73.38865505 -0.01368939 75.71652031 -0.02070236 C78.97789802 -0.02837183 82.23866727 -0.01663506 85.5 0 C86.45043686 -0.00607269 87.40087372 -0.01214539 88.38011169 -0.0184021 C98.42921909 0.07594306 106.90788191 2.37958412 114.31469727 9.38818359 C122.92041551 18.28661335 123.76618398 29.20645954 123.68891907 41.07754517 C123.69289347 42.30974301 123.69686788 43.54194085 123.70096272 44.81147802 C123.70887378 48.20130842 123.70347565 51.59062603 123.69221222 54.98041391 C123.68331904 58.64778642 123.69182835 62.3151259 123.69807434 65.98249817 C123.70753416 73.15429174 123.70098757 80.32598428 123.6888114 87.49777032 C123.67515143 95.85658919 123.67683274 104.21538433 123.67894473 112.57421152 C123.6821304 127.49106404 123.67049041 142.4078687 123.65087891 157.32470703 C123.63186973 171.78728695 123.62479368 186.24981082 123.63037109 200.71240234 C123.63643314 216.47822422 123.63624453 232.24402149 123.62488526 248.00984132 C123.62367802 249.69183691 123.62247204 251.3738325 123.62126732 253.05582809 C123.62066378 253.88331401 123.62006024 254.71079993 123.61943841 255.56336118 C123.61556467 261.38519635 123.61595075 267.20702234 123.61785316 273.02885818 C123.61997839 280.12540089 123.61472607 287.2218946 123.60023961 294.31842352 C123.59301191 297.93676279 123.58890471 301.55503082 123.59348297 305.17337608 C123.59833023 309.09989478 123.58761506 313.0262847 123.57539368 316.95278931 C123.579173 318.09024585 123.58295232 319.2277024 123.58684617 320.39962733 C123.52730857 331.21687679 122.02239461 340.68201178 114.81860352 349.14599609 C104.3104921 359.17532066 89.85755147 358.19647707 76.31469727 358.38818359 C75.32695313 358.40864746 74.33920898 358.42911133 73.3215332 358.45019531 C42.12737436 359.06795198 15.15645322 353.47747401 -8.27514648 331.77099609 C-31.48787906 309.28708785 -36.14495869 281.42183502 -36.68530273 250.38818359 C-36.89133061 234.6995224 -36.8732747 219.00772591 -36.88549137 203.3180027 C-36.88845316 199.70088683 -36.89256261 196.0837739 -36.89699554 192.46665955 C-36.9105905 181.10991259 -36.92030322 169.75317261 -36.92419744 158.39641809 C-36.92869801 145.35249667 -36.94637155 132.30867899 -36.97519803 119.2647891 C-36.9968288 109.12144367 -37.006902 98.97812748 -37.00823855 88.83475924 C-37.00928296 82.79960373 -37.01511659 76.76454684 -37.03305817 70.72941589 C-37.04956938 65.06888493 -37.05167956 59.40852663 -37.04291916 53.74798012 C-37.04215119 51.67924345 -37.04645961 49.61049732 -37.05637741 47.54178429 C-37.18516806 18.99551345 -37.18516806 18.99551345 -27.68530273 9.38818359 C-19.51091468 1.8173896 -10.91895003 -0.06961694 0 0 Z " fill="#E47C23" transform="translate(710.685302734375,-0.38818359375)"/>
<path d="M0 0 C23.93031653 -0.74508312 47.58076195 9.44956988 65.109375 25.37109375 C83.26156913 42.97322139 90.39139798 65.78845699 91.00555038 90.5497551 C91.11181725 97.50933708 91.11093458 104.46944248 91.11328125 111.4296875 C91.11650141 113.68685425 91.11986603 115.9440208 91.12336731 118.20118713 C91.12932706 122.91383345 91.13121037 127.62646151 91.13061523 132.33911133 C91.13051357 138.3448614 91.14418501 144.35049338 91.16138744 150.35621548 C91.17256227 155.01223782 91.17453279 159.66823206 91.17400551 164.32426643 C91.17517663 166.53719554 91.17954894 168.75012559 91.18733788 170.96304131 C91.30562588 208.02472428 91.30562588 208.02472428 78.8203125 221.37109375 C69.70569771 229.87806755 58.73573505 231.69279998 46.6328125 231.62109375 C45.49924316 231.61537354 44.36567383 231.60965332 43.19775391 231.60375977 C26.23527408 231.25062248 11.04114389 226.62693633 -4.0546875 219.12109375 C-5.03566406 218.64929688 -6.01664062 218.1775 -7.02734375 217.69140625 C-33.3612626 204.27815837 -53.77171575 179.00323599 -63.3671875 151.30859375 C-63.59760742 150.65922852 -63.82802734 150.00986328 -64.06542969 149.34082031 C-69.57437658 132.34478886 -69.5622046 114.82709622 -69.50073242 97.15283203 C-69.49151273 94.37778671 -69.49855193 91.60358055 -69.52124023 88.82861328 C-69.74786764 60.95190583 -66.830207 40.01606391 -47.0078125 18.9453125 C-34.43251167 6.77185399 -17.18879782 1.01302801 0 0 Z " fill="#E47C23" transform="translate(275.0546875,387.87890625)"/>
<path d="M0 0 C0.9482666 0.00757324 1.8965332 0.01514648 2.87353516 0.02294922 C18.55310505 0.37983592 33.30345543 4.18844408 47.625 10.4375 C49.37683594 11.18966797 49.37683594 11.18966797 51.1640625 11.95703125 C78.55494479 24.66318545 101.69278157 49.58557499 112.34765625 77.859375 C119.86284344 98.92853753 120.81228541 119.83679853 120.81030273 142.00512695 C120.81251172 144.7646377 120.83082439 147.52376131 120.84960938 150.28320312 C120.93317174 176.25319329 120.93317174 176.25319329 114.625 183.4375 C108.05777009 190.00472991 100.72885101 191.76093492 91.58320618 191.84408569 C90.10076668 191.83497665 90.10076668 191.83497665 88.58837891 191.82568359 C86.98894188 191.83356903 86.98894188 191.83356903 85.35719299 191.84161377 C81.85516425 191.85474691 78.35359536 191.84609785 74.8515625 191.8359375 C72.40212925 191.83796045 69.95269658 191.84087372 67.50326538 191.84463501 C62.37744393 191.84904959 57.25177969 191.84265615 52.12597656 191.82861328 C45.57717145 191.81154031 39.02873574 191.82135649 32.47994423 191.83933067 C27.42340345 191.85020727 22.36694922 191.84670406 17.31040573 191.8389473 C14.8968336 191.83695506 12.48325346 191.83936999 10.0696907 191.84638596 C6.68638767 191.85406219 3.30366996 191.84230887 -0.07958984 191.82568359 C-1.06383438 191.83175629 -2.04807892 191.83782898 -3.06214905 191.84408569 C-13.55371264 191.74927272 -22.56042724 189.71377678 -30.375 182.4375 C-36.75211956 175.70609602 -39.48164699 168.00315015 -39.52217102 158.83654785 C-39.52932632 157.72096497 -39.53648163 156.60538208 -39.54385376 155.45599365 C-39.54654266 154.24139465 -39.54923157 153.02679565 -39.55200195 151.77539062 C-39.55857315 150.48856384 -39.56514435 149.20173706 -39.57191467 147.87591553 C-39.59289268 143.61520622 -39.60331479 139.35449684 -39.61328125 135.09375 C-39.61733188 133.62147504 -39.62144889 132.14920025 -39.62563133 130.67692566 C-39.6446734 123.75443954 -39.65890354 116.83196398 -39.6672433 109.90945673 C-39.67699651 101.94721966 -39.70326971 93.985262 -39.74374419 86.02312326 C-39.77402879 79.85131819 -39.78872401 73.67959261 -39.79202431 67.50771475 C-39.79436177 63.83015612 -39.80314934 60.15289627 -39.82848549 56.47541809 C-39.85636944 52.36169237 -39.85189766 48.24858021 -39.8449707 44.13476562 C-39.85778076 42.93636047 -39.87059082 41.73795532 -39.88378906 40.50323486 C-39.81601852 29.39515685 -37.69840005 18.89838414 -30.28515625 10.3046875 C-21.98017137 2.18652232 -11.31368128 -0.12938136 0 0 Z " fill="#E47C23" transform="translate(245.375,642.5625)"/>
</svg>
