<?xml version="1.0" encoding="UTF-8"?>
<svg version="1.1" xmlns="http://www.w3.org/2000/svg" width="32" height="32">
<path d="M0 0 C10.56 0 21.12 0 32 0 C32 10.56 32 21.12 32 32 C21.44 32 10.88 32 0 32 C0 21.44 0 10.88 0 0 Z " fill="#F9F4E9" transform="translate(0,0)"/>
<path d="M0 0 C2 0.33333333 4 0.66666667 6 1 C6.33 0.67 6.66 0.34 7 0 C9.6986905 -0.07325436 12.36502556 -0.09222351 15.0625 -0.0625 C17.681875 -0.041875 20.30125 -0.02125 23 0 C23 5.61 23 11.22 23 17 C15.08 17 7.16 17 -1 17 C-1 14.69 -1 12.38 -1 10 C-0.01 10 0.98 10 2 10 C2 9.34 2 8.68 2 8 C1.34 8 0.68 8 0 8 C-0.38063221 5.6739143 -0.71269945 3.33944736 -1 1 C-0.67 0.67 -0.34 0.34 0 0 Z " fill="#F7EDE1" transform="translate(9,15)"/>
<path d="M0 0 C4.62 0 9.24 0 14 0 C14.69948187 6.76165803 14.69948187 6.76165803 12.9453125 9.8671875 C10.76777226 12.32721944 9.11659799 13.81189926 5.8203125 14.3671875 C3.625 14.375 3.625 14.375 0 14 C0 9.38 0 4.76 0 0 Z " fill="#E37C23" transform="translate(0,0)"/>
<path d="M0 0 C5.28 0 10.56 0 16 0 C16 2.97 16 5.94 16 9 C13.73020335 9.10794277 11.45894804 9.18556176 9.1875 9.25 C7.92292969 9.29640625 6.65835937 9.3428125 5.35546875 9.390625 C2 9 2 9 -0.01171875 7.296875 C-1 5 -1 5 0 0 Z " fill="#E38330" transform="translate(16,15)"/>
<path d="M0 0 C3.3 0 6.6 0 10 0 C10.6097102 8.17011667 10.6097102 8.17011667 7.75 12.0625 C5 14 5 14 1 14 C-0.38226016 11.23547967 -0.09525387 8.9538637 -0.0625 5.875 C-0.05347656 4.77929688 -0.04445313 3.68359375 -0.03515625 2.5546875 C-0.02355469 1.71164062 -0.01195312 0.86859375 0 0 Z " fill="#E47C23" transform="translate(15,0)"/>
<path d="M0 0 C1.39456452 0.00667256 2.78911118 0.01863093 4.18359375 0.03515625 C4.89451172 0.03966797 5.60542969 0.04417969 6.33789062 0.04882812 C8.09899388 0.06064761 9.86005411 0.07858362 11.62109375 0.09765625 C11.62109375 2.40765625 11.62109375 4.71765625 11.62109375 7.09765625 C6.01109375 7.09765625 0.40109375 7.09765625 -5.37890625 7.09765625 C-4.21627314 0.12185761 -4.21627314 0.12185761 0 0 Z " fill="#E47F27" transform="translate(20.37890625,24.90234375)"/>
<path d="M0 0 C5 1 5 1 7 3 C7.1953125 6.2578125 7.1953125 6.2578125 7.125 10.125 C7.10695313 11.40632813 7.08890625 12.68765625 7.0703125 14.0078125 C7.04710937 14.99523438 7.02390625 15.98265625 7 17 C4.69 17 2.38 17 0 17 C0 11.39 0 5.78 0 0 Z " fill="#E27C24" transform="translate(0,15)"/>
<path d="M0 0 C1.98 0 3.96 0 6 0 C6 4.62 6 9.24 6 14 C1 13 1 13 0 12 C-0.07244053 9.98035801 -0.08377188 7.95832876 -0.0625 5.9375 C-0.05347656 4.83277344 -0.04445313 3.72804687 -0.03515625 2.58984375 C-0.02355469 1.73519531 -0.01195313 0.88054687 0 0 Z " fill="#E48331" transform="translate(26,0)"/>
<path d="M0 0 C1.67542976 0.28604898 3.34385343 0.61781233 5 1 C5 3.64 5 6.28 5 9 C3.35 8.67 1.7 8.34 0 8 C-0.38063221 5.6739143 -0.71269945 3.33944736 -1 1 C-0.67 0.67 -0.34 0.34 0 0 Z " fill="#E48431" transform="translate(9,15)"/>
<path d="M0 0 C4 4 4 4 4.390625 6.578125 C4.34421875 7.45984375 4.2978125 8.3415625 4.25 9.25 C4.21390625 10.14203125 4.1778125 11.0340625 4.140625 11.953125 C4.09421875 12.62859375 4.0478125 13.3040625 4 14 C2.68 14 1.36 14 0 14 C0 9.38 0 4.76 0 0 Z " fill="#E77C22" transform="translate(3,18)"/>
<path d="M0 0 C4.875 0.875 4.875 0.875 6 2 C6.04063832 3.66617115 6.042721 5.33388095 6 7 C4.02 7 2.04 7 0 7 C0 4.69 0 2.38 0 0 Z " fill="#E4812C" transform="translate(8,25)"/>
<path d="M0 0 C0.66 0 1.32 0 2 0 C0.54132445 3.40357628 -0.99834751 5.78825606 -4 8 C-6.75765038 8.33810273 -9.20473086 8.18635128 -12 8 C-11.01 7.01 -10.02 6.02 -9 5 C-9.33 4.34 -9.66 3.68 -10 3 C-8.63875 3.0309375 -8.63875 3.0309375 -7.25 3.0625 C-4.57327412 3.0110245 -2.53011948 2.7784983 0 2 C0 1.34 0 0.68 0 0 Z " fill="#E78E42" transform="translate(12,6)"/>
<path d="M0 0 C4.75 0.75 4.75 0.75 7 3 C6.63318342 5.93453261 6.13562754 6.86437246 4 9 C3.67 7.35 3.34 5.7 3 4 C2.34 5.32 1.68 6.64 1 8 C0.67 5.36 0.34 2.72 0 0 Z " fill="#DE8334" transform="translate(0,15)"/>
<path d="M0 0 C0.66 0 1.32 0 2 0 C3.3271261 3.9813783 3.06915913 7.85045227 3 12 C2.01 12 1.02 12 0 12 C0 8.04 0 4.08 0 0 Z " fill="#E67A1D" transform="translate(29,1)"/>
<path d="M0 0 C0 0.66 0 1.32 0 2 C-1.32 2.33 -2.64 2.66 -4 3 C-3.01 3.66 -2.02 4.32 -1 5 C-3.31 4.67 -5.62 4.34 -8 4 C-8.33 3.01 -8.66 2.02 -9 1 C-6.04335481 -0.4783226 -3.25770263 -0.06032783 0 0 Z " fill="#E77A1E" transform="translate(24,17)"/>
<path d="M0 0 C2.31 0 4.62 0 7 0 C6.375 1.9375 6.375 1.9375 5 4 C1.875 4.75 1.875 4.75 -1 5 C-1.33 4.01 -1.66 3.02 -2 2 C0.97 2.495 0.97 2.495 4 3 C4 2.34 4 1.68 4 1 C2.68 0.67 1.36 0.34 0 0 Z " fill="#E08B3F" transform="translate(17,9)"/>
<path d="M0 0 C0.33 0 0.66 0 1 0 C1 3.63 1 7.26 1 11 C-0.65 11.33 -2.3 11.66 -4 12 C-3.525625 11.505 -3.05125 11.01 -2.5625 10.5 C-0.37832093 7.00531349 -0.34086089 4.09033064 0 0 Z " fill="#F9F1E8" transform="translate(14,0)"/>
</svg>
